<?xml version="1.0" encoding="utf-8"?>
<!-- Generator: Adobe Illustrator 19.0.0, SVG Export Plug-In . SVG Version: 6.00 Build 0)  -->
<svg version="1.1" id="Camada_1" xmlns="http://www.w3.org/2000/svg" xmlns:xlink="http://www.w3.org/1999/xlink" x="0px" y="0px"
	 viewBox="0 0 841.9 229.8" style="enable-background:new 0 0 841.9 229.8;" xml:space="preserve">
<style type="text/css">
	.st0{fill:#FFFFFF;}
	.st1{fill:#BF0411;}
</style>
<g id="XMLID_58_">
	<path id="XMLID_158_" d="M821.8,106.9l-18.7-20l15.2-18.6C824,61.2,824,51,818.1,44c-6.1-7.3-12.5-13.1-19.1-17.1
		c-6.5-4-13-6.8-19.3-8.3c-4.8-1.2-9.5-1.8-13.9-1.8c-1.6,0-3.2,0.1-4.7,0.2c-5.1,0.5-9.5,1.3-13.6,2.5c-4.1,1.2-8.3,3-12.7,5.4
		c-0.4,0.2-0.9,0.5-1.3,0.8c-0.6,0.4-1.3,0.9-1.9,1.3c-0.3-0.3-0.5-0.6-0.8-0.9c-3.6-3.8-8.6-5.9-13.8-5.9c-0.5,0-0.9,0-1.4,0.1
		l-52.1,3.9c-0.1-0.1-0.2-0.2-0.3-0.3c-3.6-3.7-8.5-5.8-13.7-5.8c-0.5,0-1.1,0-1.6,0.1l-57.4,4.9c-2.2-1.1-4.7-1.9-7.4-2l-35.6-2.4
		c-0.4,0-0.9,0-1.3,0c-4.7,0-9.3,1.8-12.9,5c-3.8,3.5-6.1,8.4-6.2,13.6l0,0.3l-15.4-12.8c-3.5-2.9-7.8-4.4-12.2-4.4
		c-2.7,0-5.4,0.6-8,1.7c-6.7,3.1-11,9.7-11.1,17.1l-0.3,21.1L455,21.9c-3.5-5.4-9.5-8.6-16-8.6c-0.2,0-0.5,0-0.7,0
		c-6.7,0.3-12.8,4-16,9.9l-16.4,29.6c-0.3-4.6-2.2-9.1-5.7-12.5c-5.5-5.4-11.2-9.7-17-12.9c-5.6-3.1-11-5.3-16.1-6.7
		c-5-1.3-9.6-2.1-13.9-2.4c-1.7-0.1-3.2-0.1-4.6-0.1c-2.1,0-4,0.1-5.7,0.3c-0.7,0.1-1.3,0.2-1.6,0.2c-0.8,0.1-1.6,0.2-2.4,0.3
		c-7.5,1.6-14.8,4.2-21.5,7.9c-6.6,3.6-12.7,8-18.1,13c-5.4,5.1-10.1,10.9-14,17.3c-1,1.7-1.9,3.4-2.8,5.1l-26.6-40.5
		c-3.5-5.4-9.5-8.6-16-8.6c-0.2,0-0.5,0-0.7,0c-6.7,0.3-12.8,4-16,9.9L210.6,46c-1.2-3-2.8-5.8-4.7-8.5c-4.8-6.7-11.5-11.8-20.1-15
		c-5.7-2.2-12.2-3.3-19.3-3.3c-2.6,0-5.4,0.2-8.2,0.4c-14.1,1.4-28.9,2.9-44,4.7c-2.6,0.3-5,1.1-7.1,2.3c-2.5-1.6-5.4-3.2-8.7-4.7
		c-1.3-0.6-2.6-1.1-4-1.3c-4.6-1-9.7-1.5-15.2-1.6c-0.3,0-0.6,0-0.9,0c-4.8,0-10.9,0.4-18.5,1.1c-7.9,0.8-17.6,2.3-29.5,4.6
		c-9.1,1.7-15.6,9.7-15.5,18.9l0.8,93.4c0.1,9.7,7.4,17.7,17,18.8c11.3,1.3,21.3,1.9,29.6,2c0.5,0,1.1,0,1.6,0
		c7.8,0,14.2-0.3,19.5-0.9c6-0.7,10.8-1.6,14.8-2.7c3.3-1,5.8-1.8,7.9-2.8c2.8,2.4,6.4,3.9,10.3,4.4l28.9,3c0.7,0.1,1.3,0.1,2,0.1
		c4.6,0,9.2-1.7,12.7-4.8c0.4-0.4,0.8-0.7,1.1-1.1l4.3,3.1c3.4,2.5,7.4,3.7,11.3,3.7c5.3,0,10.6-2.2,14.3-6.4l2.1-2.3l23.6,7.7
		c1.9,0.6,3.9,0.9,5.9,0.9c3.1,0,6.3-0.8,9.1-2.3c4.6-2.5,8-6.7,9.4-11.8l1.1-4.1l4.1,6.9c3.5,5.9,9.8,9.3,16.4,9.3
		c2.3,0,4.5-0.4,6.8-1.2l26.6-10.1c5.4,4.5,11.4,8,17.8,10.3c6.5,2.3,13.3,3.6,20.4,3.8c0.6,0,1.3,0,1.9,0c6,0,11.9-0.7,17.5-2
		c6.2-1.5,12.2-3.7,17.7-6.6c2.8-1.5,5.5-3.1,8-4.9c0.2,0.1,0.3,0.1,0.5,0.2l36,11.7c1.9,0.6,3.9,0.9,5.9,0.9c3.1,0,6.3-0.8,9.1-2.3
		c4.6-2.5,8-6.7,9.4-11.8l1.1-4.1l4.1,6.9c3.5,5.9,9.8,9.3,16.4,9.3c2.3,0,4.5-0.4,6.8-1.2l14.5-5.5c0.5,0.6,1.1,1.2,1.6,1.8
		c3.6,3.4,8.3,5.3,13.2,5.3c0.4,0,0.8,0,1.2,0l34.3-2.2c9-0.6,16.1-7.2,17.6-15.7l16.8,8.4c2.7,1.3,5.6,2,8.5,2c2,0,4-0.3,5.9-1
		c0.9,1.3,1.9,2.5,3,3.5c3.5,3.2,8.1,5,12.8,5c0.8,0,1.6,0,2.3-0.1l34-4.2c1.9-0.2,3.6-0.7,5.3-1.5c3.4,2.8,7.7,4.3,12.1,4.3
		c0.3,0,0.7,0,1,0l64-3.5c3.4-0.2,6.5-1.3,9.2-3c5.3,3.5,11,6.1,17,7.7c5.8,1.5,11.8,2.3,17.7,2.3c0.9,0,1.9,0,2.8-0.1
		c6.5-0.3,12.9-1.2,19.1-2.9c6-1.6,11.7-3.7,16.8-6.2c5.3-2.6,10.1-5.6,14.1-8.9c5.1-4.1,8.7-8.4,11.2-13.1
		C828.6,121.5,827.3,112.8,821.8,106.9z"/>
	<path id="XMLID_155_" class="st0" d="M812.9,115.2l-23.3-24.9c-1.1-1.2-2.6-1.9-4.1-2.1c0.9-0.4,1.7-1.1,2.4-1.9l20.9-25.7
		c2.1-2.6,2.1-6.3-0.1-8.8c-5.2-6.3-10.7-11.2-16.1-14.5c-5.4-3.3-10.8-5.6-15.9-6.9c-3.8-0.9-7.6-1.4-11.1-1.4
		c-1.2,0-2.4,0.1-3.6,0.2c-4.2,0.4-8,1.1-11.2,2.1c-3.2,1-6.7,2.5-10.3,4.5c-0.2,0.1-0.3,0.2-0.5,0.3c-4.2,2.8-8.4,6.6-12.5,11.2
		c-2,2.3-3.8,4.7-5.6,7.2l1.7-14.1c0.3-2.1-0.4-4.1-1.9-5.6c-1.3-1.4-3.1-2.2-5-2.2c-0.2,0-0.3,0-0.5,0l-60,4.5
		c-0.1-1.7-0.8-3.3-2-4.5c-1.3-1.3-3.1-2.1-5-2.1c-0.2,0-0.4,0-0.6,0l-61.8,5.3c-1.2-1.4-2.9-2.3-4.8-2.4l-35.6-2.4
		c-0.2,0-0.3,0-0.5,0c-1.7,0-3.4,0.6-4.7,1.8c-1.4,1.3-2.2,3.1-2.3,4.9l-0.7,25.3L503.9,34c-1.3-1.1-2.8-1.6-4.4-1.6
		c-1,0-2,0.2-2.9,0.6c-2.4,1.1-4,3.5-4,6.2l-0.9,60.5l-46.8-71.2c-1.3-2-3.5-3.1-5.8-3.1c-0.1,0-0.2,0-0.3,0
		c-2.4,0.1-4.6,1.5-5.8,3.6l-33,59.8c0.5-4,0.4-8-0.2-12c-0.5-3.5-3.5-6-6.9-6c-0.3,0-0.6,0-0.9,0.1l-13.3,1.7l13.2-13.9
		c2.6-2.8,2.5-7.1-0.2-9.7c-4.7-4.6-9.5-8.2-14.3-10.9c-4.8-2.6-9.3-4.5-13.5-5.6c-4.1-1.1-7.9-1.8-11.4-2c-1.4-0.1-2.7-0.1-3.9-0.1
		c-1.6,0-3,0.1-4.1,0.2c-1.4,0.2-1.9,0.2-2.1,0.3c-0.3,0-0.7,0.1-1,0.1c-6.4,1.3-12.5,3.6-18.3,6.7c-5.7,3.1-10.9,6.8-15.5,11.2
		c-4.6,4.4-8.6,9.3-11.9,14.8c-3.3,5.5-5.8,11.5-7.3,17.7c-0.8,3.2-1.3,6.5-1.6,9.9l-41.1-62.5c-1.3-2-3.5-3.1-5.8-3.1
		c-0.1,0-0.2,0-0.3,0c-2.4,0.1-4.6,1.5-5.8,3.6l-43.6,79l-7.8-5.1c2.7-2.4,5.2-5,7.4-7.8c4.3-5.4,7.4-11,9.4-16.8
		c2.1-5.9,2.9-11.9,2.5-17.6c-0.5-6.1-2.4-11.5-5.7-16.2c-3.4-4.7-8.3-8.4-14.5-10.8c-4.3-1.6-9.3-2.5-14.9-2.5
		c-2.2,0-4.6,0.1-7,0.4c-14,1.4-28.8,2.9-43.9,4.7c-3.6,0.4-6.2,3.5-6.1,7l0,1.3c-2.2-2.7-4.6-4.9-7.1-6.7c-2.5-1.7-5.4-3.4-9.1-5.1
		c-0.5-0.2-1-0.4-1.5-0.5c-3.8-0.8-8.1-1.2-12.7-1.3c-0.2,0-0.5,0-0.7,0c-4.4,0-10.2,0.4-17.3,1.1c-7.5,0.7-17,2.2-28.4,4.4
		c-3.3,0.6-5.7,3.5-5.6,6.9l0.8,93.4c0,3.5,2.7,6.5,6.2,6.8c10.9,1.2,20.4,1.9,28.4,1.9c0.5,0,1,0,1.6,0c7.3,0,13.4-0.3,18.2-0.8
		c5.3-0.6,9.5-1.4,12.8-2.3c3.6-1,5.9-1.9,7.5-2.9c1.7-1,2.3-1.4,2.9-2c2.3-2.3,4.3-4.5,6-6.5l0.1,5.8c0.1,3.5,2.7,6.4,6.2,6.8
		l28.9,3c0.2,0,0.5,0,0.7,0c1.7,0,3.3-0.6,4.6-1.7c1.5-1.3,2.3-3.1,2.3-5.1l0.1-7l18.2,13.4c1.2,0.9,2.7,1.4,4.1,1.4
		c1.9,0,3.8-0.8,5.2-2.3l7.3-8.3l31.2,10.2c0.7,0.2,1.4,0.3,2.1,0.3c1.1,0,2.3-0.3,3.3-0.8c1.7-0.9,2.9-2.4,3.4-4.3l3.6-13l15.9-0.5
		l7.9,13.2c1.3,2.1,3.6,3.4,6,3.4c0.8,0,1.7-0.1,2.5-0.5l33.9-12.8c1.3,1.5,2.7,2.9,4.1,4.2c4.5,3.9,9.5,6.8,14.8,8.8
		c5.2,1.9,10.8,2.9,16.5,3c0.5,0,1.1,0,1.6,0c5,0,10-0.6,14.7-1.7c5.2-1.2,10.2-3.1,14.8-5.5c4.7-2.5,8.8-5.4,12.1-8.8
		c0.2-0.2,0.4-0.4,1.2-1.4c0.1,0.2,0.1,0.4,0.2,0.5c0.8,1.9,2.3,3.4,4.3,4.1l36,11.7c0.7,0.2,1.4,0.3,2.1,0.3c1.1,0,2.3-0.3,3.3-0.8
		c1.7-0.9,2.9-2.4,3.4-4.3l3.6-13l15.9-0.5l7.9,13.2c1.3,2.1,3.6,3.4,6,3.4c0.8,0,1.7-0.1,2.5-0.5l26.8-10.1l-0.1,3.9
		c0,1.9,0.7,3.8,2.2,5.1c1.3,1.2,3,1.9,4.8,1.9c0.1,0,0.3,0,0.4,0l34.3-2.2c3.8-0.2,6.7-3.5,6.5-7.3l-1-16.2l35.1,17.5
		c1,0.5,2,0.7,3.1,0.7c1.2,0,2.4-0.3,3.5-0.9c2-1.2,3.3-3.3,3.5-5.6l3.2-52.9l6.3-0.6l-1.6,60.4c-0.1,2,0.8,4,2.3,5.3
		c1.3,1.2,3,1.8,4.7,1.8c0.3,0,0.6,0,0.8-0.1l34-4.2c3.5-0.4,6.1-3.4,6.1-6.9V73.5l5.3-0.6l0.6,64.6c0,1.9,0.8,3.7,2.2,5
		c1.3,1.2,3,1.9,4.8,1.9c0.1,0,0.2,0,0.4,0l64-3.5c3.6-0.2,6.5-3.2,6.6-6.8l0-2.7c2.2,2.3,4.6,4.5,7.3,6.6
		c4.9,3.7,10.3,6.4,16.1,7.9c4.8,1.2,9.7,1.9,14.7,1.9c0.8,0,1.5,0,2.3,0c5.6-0.2,11.1-1.1,16.4-2.5c5.3-1.4,10.2-3.3,14.6-5.4
		c4.5-2.2,8.5-4.7,11.8-7.4c3.7-3,6.4-6.1,8-9.3C815.4,120.5,814.9,117.4,812.9,115.2z M781.6,88.8c-0.6,0.3-1.2,0.7-1.7,1.2
		c-6.7,6.2-10.8,8.4-13,9.2c-2,0.7-3.3,0.8-4,0.8c-0.5,0-0.7-0.1-0.8-0.1c-1.1-0.5-1.9-1.2-2.5-2.3c-1.2-2.1-1.6-3.5-1.7-4.3
		c-0.1-0.7-0.2-1.2-0.3-1.6c0.6-2.5,1.3-4.5,1.9-6c0.7-1.7,1.7-3.4,3-5.1c0.9-1.2,1.7-1.5,2.3-1.7c0.2-0.1,0.4-0.1,0.7-0.1
		c0.6,0,1.6,0.1,3.2,0.8c1.3,0.5,4.1,2.1,8.8,7C778.6,87.9,780,88.6,781.6,88.8z"/>
	<g id="XMLID_128_">
		<path id="XMLID_150_" class="st1" d="M34,43.4c11.2-2.2,20.5-3.6,27.8-4.3c7.3-0.7,13.1-1.1,17.3-1c4.2,0,8,0.4,11.4,1.1
			c3.3,1.5,5.9,3,8,4.5c2.1,1.5,4,3.3,5.9,5.6c1.9,2.3,3,4.9,3.5,7.9c0.4,3-0.2,6.4-1.8,10.1c-1.6,3.7-4.9,7.9-9.7,12.4
			c6.7,3.5,11.5,7.3,14.3,11.3c2.8,4,4.4,8,4.7,11.9c0.3,3.9-0.3,7.7-1.8,11.2c-1.5,3.6-3.2,6.7-5.1,9.4c-2,2.7-4.6,5.7-7.8,9
			c-0.1,0.1-0.6,0.4-1.6,1c-1,0.6-2.9,1.3-5.9,2.2c-2.9,0.8-6.8,1.5-11.7,2.1c-4.9,0.6-11.2,0.8-18.9,0.8c-7.7,0-16.9-0.7-27.6-1.9
			L34,43.4z M83.2,102.6c-0.1-0.8-0.5-1.7-1.1-2.8c-0.6-1.1-1.6-1.9-2.9-2.6c-1.4-0.6-3.2-0.8-5.7-0.6c-2.4,0.2-5.6,1.3-9.4,3.1
			l1.6,12.6c4.4,0.4,7.8,0.2,10.2-0.6c2.4-0.8,4.2-1.8,5.3-2.9c1.1-1.2,1.8-2.8,2.2-4.8C83.4,103.9,83.3,103.4,83.2,102.6z
			 M76.3,66.2c-0.6-0.8-1.7-1.4-3.3-1.7c-1.6-0.3-4,0.2-7.2,1.5l-0.5,12.6c2.5,0.4,4.5,0.2,6-0.7c1.6-0.8,2.8-1.8,3.6-3
			c0.8-1.2,1.5-2.7,2.1-4.7C77.1,68.4,76.9,67.1,76.3,66.2z"/>
		<path id="XMLID_146_" class="st1" d="M195.3,119.7l-18.5,20.9l-29.1-21.4l-0.4,20.4l-28.9-3l-1.9-93.4c15.1-1.8,29.7-3.3,43.8-4.7
			c7.5-0.8,13.7-0.2,18.7,1.7c5,1.9,8.8,4.7,11.4,8.3c2.6,3.6,4.1,7.9,4.4,12.7c0.4,4.8-0.3,9.8-2.1,14.8c-1.8,5.1-4.5,10-8.3,14.8
			c-3.8,4.8-8.5,8.9-14.1,12.4L195.3,119.7z M145.9,70.1l-1.2,19.1c2.9-0.6,5.4-1.6,7.5-2.7c2.1-1.2,3.9-2.5,5.3-3.8
			c1.4-1.4,2.5-2.7,3.3-3.9c0.8-1.2,1.2-2.2,1.4-2.9c0-0.1,0-0.5,0.1-1.3c0.1-0.8,0-1.8-0.3-2.9c-0.3-1.1-1-2.1-2-2.8
			c-1.1-0.8-2.7-1.1-5-1.1C152.8,67.8,149.8,68.6,145.9,70.1z"/>
		<path id="XMLID_143_" class="st1" d="M239.9,32.4l60.4,91.8l-37.5,14.2l-10-16.7l-25.1,0.8l-4.9,17.9l-36-11.7L239.9,32.4z
			 M233.8,103.6l14.2-2.5l-6-16.3L233.8,103.6z"/>
		<path id="XMLID_141_" class="st1" d="M364.5,77.5c-1.1-2.7-2.9-4.7-5.3-5.9c-2.4-1.2-5.2-1.9-8.2-1.9c-3,0-6,0.6-9.2,1.9
			c-3.2,1.3-6.1,3.1-8.7,5.4c-2.6,2.3-4.8,5.1-6.5,8.5c-1.7,3.3-2.6,7.1-2.6,11.4c-0.1,3.9,0.5,7,1.9,9.4c1.3,2.4,3,4,5,5.1
			c2,1,4.3,1.5,6.8,1.4c2.5-0.1,4.9-0.7,7.3-1.8c2.4-1.1,4.6-2.5,6.5-4.3c2-1.8,3.4-3.8,4.4-6.2l-17,3.2l1.9-19.3l52.1-6.6
			c0.7,5,0.5,10-0.7,14.9c-1.2,4.9-2.8,9.4-4.8,13.5c-2,4.1-4.2,7.7-6.4,10.9c-2.2,3.2-4.1,5.7-5.6,7.4c-1.5,1.7-2.3,2.6-2.5,2.8
			c-2.9,2.9-6.4,5.4-10.5,7.5c-4.1,2.2-8.5,3.8-13.2,4.9c-4.7,1.1-9.6,1.6-14.6,1.5c-5-0.1-9.8-1-14.3-2.6
			c-4.5-1.6-8.7-4.1-12.6-7.5c-3.9-3.3-7-7.7-9.4-13c-2.7-6-4.3-11.9-4.7-17.9c-0.4-5.9,0.1-11.7,1.4-17.2
			c1.4-5.5,3.5-10.8,6.5-15.7c3-4.9,6.6-9.4,10.8-13.3c4.2-3.9,8.9-7.3,14.1-10.1c5.2-2.8,10.6-4.8,16.4-6c0.2,0,1-0.1,2.6-0.3
			c1.6-0.2,3.8-0.2,6.8-0.1c2.9,0.2,6.3,0.7,9.9,1.7c3.7,1,7.7,2.7,12,5c4.3,2.4,8.6,5.6,12.8,9.7L364.5,77.5z"/>
		<path id="XMLID_138_" class="st1" d="M439,32.4l60.4,91.8l-37.5,14.2l-10-16.7l-25.1,0.8l-4.9,17.9l-36-11.7L439,32.4z
			 M432.9,103.6l14.2-2.5l-6-16.3L432.9,103.6z"/>
		<path id="XMLID_136_" class="st1" d="M499.5,39.4l45.7,37.9l1.1-39.6l35.6,2.4l-5.5,91.2l-45.8-22.8l1.7,28.2l-34.3,2.2
			L499.5,39.4z"/>
		<path id="XMLID_133_" class="st1" d="M646.5,65.7l-14.3,1.7v67.3l-34,4.2l1.8-68.3l-15.8,1.6l0.8-29.4l64.6-5.5L646.5,65.7z"/>
		<path id="XMLID_131_" class="st1" d="M651,44.3l66-4.9l-3.7,30.3l-30,1.3l-0.1,5.7l21.8-1.6l-2.5,20.9l-20,1.6l-0.2,6.6l34.2-3.2
			l-0.6,33l-64,3.5L651,44.3z"/>
		<path id="XMLID_129_" class="st1" d="M803.4,56.2l-20.9,25.7c-4.3-4.5-8.1-7.5-11.3-8.7c-3.2-1.3-6-1.6-8.4-0.9
			c-2.4,0.7-4.3,2.1-5.9,4.2c-1.6,2.1-2.9,4.3-3.8,6.5c-1,2.2-1.8,5-2.6,8.5c0,0.2,0.2,1.2,0.5,3.1c0.4,1.9,1.2,4,2.5,6.4
			c1.3,2.4,3.2,4.1,5.6,5.2c2.4,1.1,5.7,1,9.9-0.5c4.2-1.4,9.3-5,15.5-10.6l23.3,24.9c-1.2,2.3-3.3,4.7-6.2,7.1
			c-2.9,2.4-6.5,4.6-10.5,6.6c-4.1,2-8.5,3.6-13.4,5c-4.9,1.3-9.8,2.1-14.9,2.3c-5.1,0.2-10-0.3-14.9-1.6c-4.9-1.3-9.4-3.5-13.6-6.7
			c-6-4.6-10.4-9.7-13.3-15.3c-2.9-5.6-4.6-11.3-5.1-17.2c-0.6-5.9-0.1-11.8,1.4-17.7c1.5-5.9,3.5-11.4,6.2-16.6
			c2.7-5.2,5.8-9.8,9.4-14c3.6-4.1,7.3-7.5,11.1-9.9c3.2-1.8,6.2-3,9-3.9c2.8-0.8,6.1-1.4,9.9-1.8c3.8-0.4,7.9,0,12.3,1.1
			c4.4,1.1,9,3.1,13.9,6C793.9,46.2,798.7,50.5,803.4,56.2z"/>
	</g>
	<g id="XMLID_59_">
		<path id="XMLID_126_" d="M43.6,216h-9v-33.8h20v7.3h-11v6.4h10.1v7.3H43.6V216z"/>
		<path id="XMLID_124_" d="M80.1,216h-20v-33.8h20v7.3H69.2v5.3h10.1v7.3H69.2v6.4h10.9V216z"/>
		<path id="XMLID_122_" d="M86.1,216v-33.8h9.2V216H86.1z"/>
		<path id="XMLID_119_" d="M111.7,203.7V216h-9.1v-33.8h11.1c9.2,0,13.8,3.3,13.8,10c0,3.9-1.9,6.9-5.7,9.1l9.8,14.7h-10.3
			l-7.2-12.3H111.7z M111.7,196.9h1.7c3.2,0,4.8-1.4,4.8-4.2c0-2.3-1.6-3.5-4.7-3.5h-1.8V196.9z"/>
		<path id="XMLID_116_" d="M155.3,216l-1.7-6.3h-11l-1.7,6.3h-10l11-33.9h12.2l11.2,33.9H155.3z M151.7,202.2l-1.5-5.5
			c-0.3-1.2-0.8-2.8-1.2-4.8c-0.5-2-0.8-3.4-1-4.2c-0.1,0.8-0.4,2.1-0.8,3.9c-0.4,1.8-1.3,5.4-2.7,10.6H151.7z"/>
		<path id="XMLID_113_" d="M209.8,198.4c0,5.6-1.6,10-4.7,13c-3.1,3-7.5,4.6-13.1,4.6h-10.9v-33.8h11.7c5.4,0,9.6,1.4,12.6,4.2
			C208.4,189.2,209.8,193.2,209.8,198.4z M200.4,198.7c0-3.1-0.6-5.4-1.8-6.9c-1.2-1.5-3.1-2.2-5.6-2.2h-2.7v18.9h2
			c2.8,0,4.8-0.8,6.1-2.4C199.7,204.5,200.4,202.1,200.4,198.7z"/>
		<path id="XMLID_111_" d="M235.9,216h-20v-33.8h20v7.3H225v5.3h10.1v7.3H225v6.4h10.9V216z"/>
		<path id="XMLID_109_" d="M269.2,189.3c-2.2,0-3.9,0.9-5.1,2.7c-1.2,1.8-1.8,4.2-1.8,7.4c0,6.5,2.5,9.7,7.4,9.7
			c1.5,0,2.9-0.2,4.3-0.6c1.4-0.4,2.8-0.9,4.2-1.5v7.7c-2.8,1.2-6,1.9-9.6,1.9c-5.1,0-9-1.5-11.7-4.4c-2.7-3-4.1-7.2-4.1-12.8
			c0-3.5,0.7-6.6,2-9.2c1.3-2.6,3.2-4.7,5.7-6.1c2.5-1.4,5.4-2.1,8.7-2.1c3.6,0,7.1,0.8,10.5,2.4l-2.8,7.2c-1.2-0.6-2.5-1.1-3.7-1.5
			C272,189.5,270.6,189.3,269.2,189.3z"/>
		<path id="XMLID_107_" d="M284.8,216v-33.8h9.2V216H284.8z"/>
		<path id="XMLID_104_" d="M316.2,179.6c-1.3-0.7-2.8-1.9-4.6-3.5c-1.9,1.6-3.4,2.8-4.5,3.5h-6v-0.7c1.1-1,2.2-2.2,3.3-3.5
			c1.2-1.4,2-2.5,2.6-3.4h9.1c1.4,2.1,3.4,4.4,5.9,6.9v0.7H316.2z M321.4,216h-20v-33.8h20v7.3h-10.9v5.3h10.1v7.3h-10.1v6.4h10.9
			V216z"/>
		<path id="XMLID_102_" d="M359.4,216h-12l-12.3-23.8h-0.2c0.3,3.7,0.4,6.6,0.4,8.6V216h-8.1v-33.8h11.9l12.3,23.5h0.1
			c-0.2-3.4-0.3-6.1-0.3-8.2v-15.3h8.1V216z"/>
		<path id="XMLID_100_" d="M381.8,189.3c-2.2,0-3.9,0.9-5.1,2.7c-1.2,1.8-1.8,4.2-1.8,7.4c0,6.5,2.5,9.7,7.4,9.7
			c1.5,0,2.9-0.2,4.3-0.6c1.4-0.4,2.8-0.9,4.2-1.5v7.7c-2.8,1.2-6,1.9-9.6,1.9c-5.1,0-9-1.5-11.7-4.4c-2.7-3-4.1-7.2-4.1-12.8
			c0-3.5,0.7-6.6,2-9.2c1.3-2.6,3.2-4.7,5.7-6.1c2.5-1.4,5.4-2.1,8.7-2.1c3.6,0,7.1,0.8,10.5,2.4l-2.8,7.2c-1.2-0.6-2.5-1.1-3.7-1.5
			C384.5,189.5,383.2,189.3,381.8,189.3z"/>
		<path id="XMLID_98_" d="M397.4,216v-33.8h9.2V216H397.4z"/>
		<path id="XMLID_95_" d="M434.6,216l-1.7-6.3h-11l-1.7,6.3h-10l11-33.9h12.2l11.2,33.9H434.6z M431.1,202.2l-1.5-5.5
			c-0.3-1.2-0.8-2.8-1.2-4.8c-0.5-2-0.8-3.4-1-4.2c-0.1,0.8-0.4,2.1-0.8,3.9c-0.4,1.8-1.3,5.4-2.7,10.6H431.1z"/>
		<path id="XMLID_93_" d="M480.6,216h-20v-33.8h20v7.3h-10.9v5.3h10.1v7.3h-10.1v6.4h10.9V216z"/>
		<path id="XMLID_83_" d="M513.7,216h-9.1v-26.3h-8.2v-7.5h25.6v7.5h-8.2V216z"/>
		<path id="XMLID_81_" d="M546.8,216h-20v-33.8h20v7.3h-10.9v5.3H546v7.3h-10.1v6.4h10.9V216z"/>
		<path id="XMLID_79_" d="M567.7,189.3c-2.2,0-3.9,0.9-5.1,2.7c-1.2,1.8-1.8,4.2-1.8,7.4c0,6.5,2.5,9.7,7.4,9.7
			c1.5,0,2.9-0.2,4.3-0.6c1.4-0.4,2.8-0.9,4.2-1.5v7.7c-2.8,1.2-6,1.9-9.6,1.9c-5.1,0-9-1.5-11.7-4.4c-2.7-3-4.1-7.2-4.1-12.8
			c0-3.5,0.7-6.6,2-9.2c1.3-2.6,3.2-4.7,5.7-6.1c2.5-1.4,5.4-2.1,8.7-2.1c3.6,0,7.1,0.8,10.5,2.4l-2.8,7.2c-1.2-0.6-2.5-1.1-3.7-1.5
			C570.5,189.5,569.2,189.3,567.7,189.3z"/>
		<path id="XMLID_77_" d="M615.5,216h-12l-12.3-23.8H591c0.3,3.7,0.4,6.6,0.4,8.6V216h-8.1v-33.8h11.9l12.3,23.5h0.1
			c-0.2-3.4-0.3-6.1-0.3-8.2v-15.3h8.1V216z"/>
		<path id="XMLID_74_" d="M654.4,199.1c0,5.7-1.4,10-4.2,13c-2.8,3-6.9,4.4-12.2,4.4c-5.3,0-9.4-1.5-12.2-4.5c-2.8-3-4.2-7.3-4.2-13
			c0-5.6,1.4-9.9,4.2-12.9c2.8-3,6.9-4.4,12.3-4.4c5.4,0,9.4,1.5,12.2,4.4C653.1,189.1,654.4,193.4,654.4,199.1z M631.2,199.1
			c0,6.5,2.3,9.8,6.8,9.8c2.3,0,4-0.8,5.1-2.4c1.1-1.6,1.7-4.1,1.7-7.4c0-3.4-0.6-5.9-1.7-7.5c-1.1-1.6-2.8-2.4-5.1-2.4
			C633.5,189.2,631.2,192.5,631.2,199.1z"/>
		<path id="XMLID_72_" d="M660.5,216v-33.8h9.1v26.4h13v7.4H660.5z"/>
		<path id="XMLID_69_" d="M719.7,199.1c0,5.7-1.4,10-4.2,13c-2.8,3-6.9,4.4-12.2,4.4c-5.3,0-9.4-1.5-12.2-4.5c-2.8-3-4.2-7.3-4.2-13
			c0-5.6,1.4-9.9,4.2-12.9c2.8-3,6.9-4.4,12.3-4.4c5.4,0,9.4,1.5,12.2,4.4C718.3,189.1,719.7,193.4,719.7,199.1z M696.4,199.1
			c0,6.5,2.3,9.8,6.8,9.8c2.3,0,4-0.8,5.1-2.4c1.1-1.6,1.7-4.1,1.7-7.4c0-3.4-0.6-5.9-1.7-7.5c-1.1-1.6-2.8-2.4-5.1-2.4
			C698.7,189.2,696.4,192.5,696.4,199.1z"/>
		<path id="XMLID_67_" d="M739.3,196.3h14.6v18.2c-4,1.4-8.3,2-13,2c-5.2,0-9.2-1.5-12.1-4.5c-2.8-3-4.3-7.3-4.3-12.9
			c0-5.5,1.6-9.7,4.7-12.7c3.1-3,7.5-4.5,13.1-4.5c2.1,0,4.1,0.2,6,0.6c1.9,0.4,3.5,0.9,4.9,1.5l-2.9,7.2c-2.4-1.2-5.1-1.8-8-1.8
			c-2.7,0-4.7,0.9-6.2,2.6c-1.5,1.7-2.2,4.2-2.2,7.4c0,3.2,0.7,5.6,2,7.2c1.3,1.7,3.2,2.5,5.7,2.5c1.4,0,2.6-0.1,3.7-0.4v-5.3h-6
			V196.3z"/>
		<path id="XMLID_64_" d="M760.8,216v-33.8h9.2V216H760.8z"/>
		<path id="XMLID_60_" d="M798,216l-1.7-6.3h-11l-1.7,6.3h-10l11-33.9h12.2l11.2,33.9H798z M794.4,202.2l-1.5-5.5
			c-0.3-1.2-0.8-2.8-1.2-4.8c-0.5-2-0.8-3.4-1-4.2c-0.1,0.8-0.4,2.1-0.8,3.9c-0.4,1.8-1.3,5.4-2.7,10.6H794.4z"/>
	</g>
</g>
</svg>
